<svg xmlns="http://www.w3.org/2000/svg" xmlns:xlink="http://www.w3.org/1999/xlink" width="954.014" height="549.758" viewBox="0 0 954.014 549.758">
  <defs>
    <linearGradient id="linear-gradient" x1="0.5" y1="1" x2="0.5" gradientUnits="objectBoundingBox">
      <stop offset="0" stop-color="gray" stop-opacity="0.251"/>
      <stop offset="0.54" stop-color="gray" stop-opacity="0.122"/>
      <stop offset="1" stop-color="gray" stop-opacity="0.102"/>
    </linearGradient>
    <linearGradient id="linear-gradient-2" y1="1" y2="0" xlink:href="#linear-gradient"/>
  </defs>
  <g id="Group_442" data-name="Group 442" transform="translate(-5580 844)">
    <path id="Path_651" data-name="Path 651" d="M359.74,535.18c-57.68-19.93-123.63-36.8-177.52-8.16-6.83,3.63-13.56,8.2-17.24,15-9.72,17.89,5.73,41.09-1.8,60s-35.87,28.43-33.55,48.63c.61,5.28,3.47,10.06,6.84,14.18,21.11,25.79,59.81,28.4,92.52,22s64.7-19.67,98-18c32,1.65,61.44,17,90.76,29.92,49.43,21.84,107.16,37.51,156.55,15.56,22.63-10.06,41.34-27.19,63-39.15A155.059,155.059,0,0,1,733,657.6c22,3.1,43,10.9,64.53,16.28,48.9,12.21,99.94,11.81,150.33,11.33,9.38-.09,18.91-.2,27.9-2.88,13.31-4,24.29-13.21,34.86-22.22,13.89-11.83,28.52-24.83,33-42.52,5.29-21-5.66-43.32-21.9-57.59s-37-22.07-57.26-29.59c-5-1.84-10.34-3.71-15.46-2.32-3.36.92-6.19,3.16-8.7,5.57-14.38,13.84-26.53,37.25-46.14,33.49-7-1.34-12.73-6.21-18.27-10.71-29.58-24-69.37-42.53-105.07-29.27-26.11,9.7-44.54,34.61-71,43.4-18.82,6.26-39.27,3.55-59.07,4.77-28.8,1.76-56.83,11.94-85.67,11.32-73.54-1.58-134.81-71.9-208.05-65.2-5.74.52-12,1.84-15.52,6.38" transform="translate(5456.997 -1019.13)" fill="#6c63ff" opacity="0.5"/>
    <path id="Path_652" data-name="Path 652" d="M267,468.29S205.89,505.18,318.58,562c0,0,24.83-46.1-2.62-83.69a37,37,0,0,0-48-10.52Z" transform="translate(5456.997 -1019.13)" fill="#6c63ff"/>
    <path id="Path_653" data-name="Path 653" d="M267.73,467.52s52.32,40,50.86,94.45" transform="translate(5456.997 -1019.13)" fill="none" stroke="#535461" stroke-miterlimit="10" stroke-width="1"/>
    <path id="Path_654" data-name="Path 654" d="M1040.15,437.56c12.38,45.27-40.43,174.24-40.43,174.24S888.6,527.67,876.21,482.4a85,85,0,1,1,163.93-44.85Z" transform="translate(5456.997 -1019.13)" fill="#6c63ff"/>
    <path id="Path_655" data-name="Path 655" d="M1040.15,437.56c12.38,45.27-40.43,174.24-40.43,174.24S888.6,527.67,876.21,482.4a85,85,0,1,1,163.93-44.85Z" transform="translate(5456.997 -1019.13)" fill="#374d7b" opacity="0.1"/>
    <path id="Path_656" data-name="Path 656" d="M936.21,378.27s69.17,104.42,64,233.78" transform="translate(5456.997 -1019.13)" fill="none" stroke="#535461" stroke-miterlimit="10" stroke-width="1"/>
    <path id="Path_657" data-name="Path 657" d="M1057.8,520.3s-62.72-34.12-54.78,91.83c0,0,52.32-1.87,70.89-44.55a37,37,0,0,0-15.19-46.75Z" transform="translate(5456.997 -1019.13)" fill="#6c63ff"/>
    <path id="Path_658" data-name="Path 658" d="M1058.83,520.52s-8.1,65.38-55.81,91.61" transform="translate(5456.997 -1019.13)" fill="none" stroke="#535461" stroke-miterlimit="10" stroke-width="1"/>
    <path id="Path_659" data-name="Path 659" d="M139.56,506.26s-61.14,36.88,51.56,93.67c0,0,24.83-46.1-2.62-83.69a37,37,0,0,0-48-10.52Z" transform="translate(5456.997 -1019.13)" fill="#6c63ff"/>
    <path id="Path_660" data-name="Path 660" d="M140.26,505.49s52.32,40,50.86,94.45" transform="translate(5456.997 -1019.13)" fill="none" stroke="#535461" stroke-miterlimit="10" stroke-width="1"/>
    <path id="Path_661" data-name="Path 661" d="M902.43,554.27H838.18a21.42,21.42,0,0,0,2.24-9.57V252.14a21.51,21.51,0,0,0-21.51-21.51H321.58a21.51,21.51,0,0,0-21.51,21.51V544.71a21.42,21.42,0,0,0,2.24,9.57H235.79A5.69,5.69,0,0,0,230.1,560v4.59a31.82,31.82,0,0,0,31.82,31.82H876.3a31.82,31.82,0,0,0,31.82-31.82V560a5.69,5.69,0,0,0-5.69-5.73Zm-395.89,18.2L501,566.22H637.78l-6.1,6.26Z" transform="translate(5456.997 -1019.13)" fill="url(#linear-gradient)"/>
    <rect id="Rectangle_330" data-name="Rectangle 330" width="528.12" height="327.99" rx="23.26" transform="translate(5763.157 -784.36)" fill="#535461"/>
    <rect id="Rectangle_331" data-name="Rectangle 331" width="504.77" height="267.95" transform="translate(5774.276 -736.55)" fill="#fff"/>
    <circle id="Ellipse_45" data-name="Ellipse 45" cx="4.45" cy="4.45" r="4.45" transform="translate(6022.217 -764.35)" fill="#fff"/>
    <path id="Path_662" data-name="Path 662" d="M647.6,551.08l-17.34,17.79H508l-15.67-17.79H243.34a5.56,5.56,0,0,0-5.56,5.56v4.48a31.1,31.1,0,0,0,31.1,31.1H869.34a31.1,31.1,0,0,0,31.1-31.1v-4.48a5.56,5.56,0,0,0-5.56-5.56Z" transform="translate(5456.997 -1019.13)" fill="#535461"/>
    <path id="Path_663" data-name="Path 663" d="M258.77,124.19V352.11h376.9" transform="translate(5579.997 -844.06)" fill="none" stroke="#535461" stroke-miterlimit="10" stroke-width="2"/>
    <rect id="Rectangle_332" data-name="Rectangle 332" width="38.91" height="60.04" transform="translate(5872.117 -560.88)" fill="#374d7b" opacity="0.5"/>
    <rect id="Rectangle_333" data-name="Rectangle 333" width="38.91" height="113.41" transform="translate(5938.827 -614.25)" fill="#374d7b" opacity="0.7"/>
    <rect id="Rectangle_334" data-name="Rectangle 334" width="38.91" height="81.16" transform="translate(6005.537 -582.01)" fill="#374d7b" opacity="0.5"/>
    <rect id="Rectangle_335" data-name="Rectangle 335" width="38.91" height="131.2" transform="translate(6072.247 -632.04)" fill="#374d7b" opacity="0.8"/>
    <rect id="Rectangle_336" data-name="Rectangle 336" width="38.91" height="177.89" transform="translate(6138.957 -678.74)" fill="#374d7b"/>
    <path id="Path_664" data-name="Path 664" d="M311.02,246.49l67.82-61.15,66.71,57.81,65.6-70.04,66.71-27.8" transform="translate(5579.997 -844.06)" fill="none" stroke="#535461" stroke-miterlimit="10" stroke-width="2"/>
    <circle id="Ellipse_46" data-name="Ellipse 46" cx="7.78" cy="7.78" r="7.78" transform="translate(5883.236 -605.35)" fill="#374d7b"/>
    <circle id="Ellipse_47" data-name="Ellipse 47" cx="7.78" cy="7.78" r="7.78" transform="translate(6016.657 -609.8)" fill="#374d7b"/>
    <circle id="Ellipse_48" data-name="Ellipse 48" cx="7.78" cy="7.78" r="7.78" transform="translate(6084.477 -678.73)" fill="#374d7b"/>
    <circle id="Ellipse_49" data-name="Ellipse 49" cx="7.78" cy="7.78" r="7.78" transform="translate(5951.057 -667.62)" fill="#374d7b"/>
    <circle id="Ellipse_50" data-name="Ellipse 50" cx="7.78" cy="7.78" r="7.78" transform="translate(6150.077 -706.53)" fill="#374d7b"/>
    <path id="Path_665" data-name="Path 665" d="M990.31,560.82c-4.1-1.35-10.18-2.91-15-2.36-4.59-1.67-15.38-6-22.75-12.52a164.081,164.081,0,0,0-.49-19.22c-3.77-42.87,4.71-71.13,4.71-71.13s6.66-21.56,5.93-39.45c.43.81.67,1.29.67,1.29.58-15.43,5.84-31.4,9.78-41.35a3.32,3.32,0,0,0,.44-.16l4.4-10.44a9.058,9.058,0,0,0,.83-1.93l.71-1.65-.21-.09c.07-.27.14-.56.21-.85h0c2.81-11.89,5-40.09,5-40.09,7.54-29.68-10.36-48-10.36-48L943.8,246.73a3.853,3.853,0,0,1,.3,1.07l-.25-.22c-.43-1.23-.9-2.7-1.36-4.38a25.683,25.683,0,0,0,9.81-14.72,46.075,46.075,0,0,0,.45-11l-.5-12.61a40.006,40.006,0,0,0-.75-7.35c-2.29-10-12.54-17-22.83-17.46a83.445,83.445,0,0,0-9.8.52,65.929,65.929,0,0,1-8,.17,1.44,1.44,0,0,1-.86-.23,1.26,1.26,0,0,1-.37-.87,4.34,4.34,0,0,1,1.06-3.25,4,4,0,0,1,1.38-.79l-.73.17a4,4,0,0,1,1.2-.65,23.291,23.291,0,0,0-7.58,2.75,9.786,9.786,0,0,0-1.77,1.49,7.73,7.73,0,0,0-2.56,4.76,8.859,8.859,0,0,1-2.7-4,4,4,0,0,1,0-1.94q-.27.33-.52.68v-.21a20.22,20.22,0,0,0-4,8.14,3.17,3.17,0,0,1-.72-2.34q-.225.705-.42,1.41a3.262,3.262,0,0,1,0-.94,32.21,32.21,0,0,0-1.57,11.18c0,3.78,1.68,9.67,5.73,11,.21.07.42.12.64.17a25.43,25.43,0,0,0,17.15,38.84q.1.69.19,1.45h.16c.11,1,.2,2.1.26,3.22a21.673,21.673,0,0,1-3.34,2.68,27.541,27.541,0,0,1-11.12,3.68,33.1,33.1,0,0,0-13.37,4c-4.85,2.71-10.2,6.66-11.88,11.46-2.8,8-18.22,20.45-28.56,22l-3.68-.21-.27-.08v.07l-.9-.05h-.29v.05l-.93-.05s-.09.43-.22,1.19c-5.2-1.79-16.25-6.75-30.63-19.8-16-14.53-37.65-11.67-46-9.84a1.43,1.43,0,0,0-.38,2.65c3.37,1.85,8.59,4.54,11,4.84,0,0-5,5.23.32,8a3.86,3.86,0,0,0,4-.39c2.58-1.89,9.75,2.39,20.14,4.62,0,0,29.32,30.34,43.88,35a20.947,20.947,0,0,0,1.11,1.93l.9-.07v.07H845l.11,1s22.64-1.19,30-9.41a11.792,11.792,0,0,0,1.43-1.53l-7.87,99h.07l-.07.94h5.79A218.246,218.246,0,0,1,872.89,449v64.54s-.3,5.68,11.5,14a441.08,441.08,0,0,1,35.72,27.69l1.43,1.24c-2.17,19.75-6.71,56.56-10.5,57.93l2.34.41c-4,5.07-15.36,19-18.82,19.37-4.24.47-7.07,7.07,0,8.48a79.21,79.21,0,0,0,42-4.14,6.41,6.41,0,0,0,4-6.82l-1.37-10.4a1.46,1.46,0,0,1,.6.63c.94,2.83,0-3.77,0-3.77a294.741,294.741,0,0,0,9.11-38l14,12.1s.28-.35.77-1c3.43,7.78,9.55,23.7,8.18,35.36-1.88,16,16,1.88,14.13-7.54-1.52-7.62,5.28-39.92,7.93-52a5.37,5.37,0,0,0-3.6-6.26Z" transform="translate(5456.997 -1019.13)" fill="url(#linear-gradient-2)"/>
    <path id="Path_666" data-name="Path 666" d="M844,299.49s-13.34-2.3-33.12-20.24c-15.65-14.19-36.76-11.4-44.9-9.61a1.39,1.39,0,0,0-.37,2.58c3.29,1.8,8.39,4.43,10.78,4.73,0,0-4.93,5.1.31,7.83a3.77,3.77,0,0,0,3.94-.38c2.52-1.84,9.52,2.34,19.67,4.51,0,0,39.56,40.94,48.76,34Z" transform="translate(5456.997 -1019.13)" fill="#fec3be"/>
    <path id="Path_667" data-name="Path 667" d="M912.11,243.83s3.68,15.64,0,26.68l16.56,2.3,14.72-7.36v-9.66s-6.9-14.72-5.06-31.74Z" transform="translate(5456.997 -1019.13)" fill="#fec3be"/>
    <path id="Path_668" data-name="Path 668" d="M959,582.83s12,23.46,10.12,39.1,15.64,1.84,13.8-7.36c-1.49-7.44,5.15-39,7.74-50.74a5.24,5.24,0,0,0-3.48-6.11c-5.53-1.82-14.79-4.05-19.44-.64C960.87,562.13,959,582.83,959,582.83Z" transform="translate(5456.997 -1019.13)" fill="#8b416f"/>
    <path id="Path_669" data-name="Path 669" d="M913.49,608.59s-15.64,20.24-19.78,20.7-6.9,6.9,0,8.28a77.34,77.34,0,0,0,41-4,6.26,6.26,0,0,0,3.93-6.66L936,607.21Z" transform="translate(5456.997 -1019.13)" fill="#8b416f"/>
    <path id="Path_670" data-name="Path 670" d="M887.73,393.78l-15,2a219.531,219.531,0,0,1-.18,52.73v63s-.29,5.55,11.23,13.62a430.676,430.676,0,0,1,34.88,27l41.74,36.16s16.56-20.24,14.26-32.2c0,0-27.6-8.74-31.28-23-2.11-8.16-12.81-15-21.57-19.3a26.82,26.82,0,0,1-14.35-30.44,23.468,23.468,0,0,1,2.35-5.91c7.36-12.88,17.94-41.86,17.94-41.86L907.51,397Z" transform="translate(5456.997 -1019.13)" fill="#4d4981"/>
    <path id="Path_671" data-name="Path 671" d="M887.73,393.78l-15,2a219.531,219.531,0,0,1-.18,52.73v63s-.29,5.55,11.23,13.62a430.676,430.676,0,0,1,34.88,27l41.74,36.16s16.56-20.24,14.26-32.2c0,0-27.6-8.74-31.28-23-2.11-8.16-12.81-15-21.57-19.3a26.82,26.82,0,0,1-14.35-30.44,23.468,23.468,0,0,1,2.35-5.91c7.36-12.88,17.94-41.86,17.94-41.86L907.51,397Z" transform="translate(5456.997 -1019.13)" opacity="0.05"/>
    <path id="Path_672" data-name="Path 672" d="M909.81,610s27.14,4.6,28.06,7.36,0-3.68,0-3.68,15.64-47.38,12-89.23,4.6-69.46,4.6-69.46,9.66-31.28,4.14-49.22-63.48-10.12-63.48-10.12,20.24,47.38,19.78,69.92c0,0,2.3,68.08,6.44,75.9C921.31,541.43,914.87,608.13,909.81,610Z" transform="translate(5456.997 -1019.13)" fill="#4d4981"/>
    <path id="Path_673" data-name="Path 673" d="M913,255.79s2.76,17,30.36,9.66L925,405.28s-53.36,1.84-52.9-4.6l11-84.63Z" transform="translate(5456.997 -1019.13)" fill="#fff"/>
    <path id="Path_674" data-name="Path 674" d="M913.72,254.87a22.42,22.42,0,0,1-13.29,6.31,32.329,32.329,0,0,0-13.06,3.88c-4.73,2.65-10,6.5-11.6,11.19-3.22,9.2-23.46,24.38-32.66,21.16l3.22,27.6s26.22-1.38,30.82-11.5L869.34,412h6.9s3.68-26.68,6.44-32.2,8.28-35.88,8.74-43.24,7.36-49.68,13.34-57l9-21.85Z" transform="translate(5456.997 -1019.13)" opacity="0.1"/>
    <path id="Path_675" data-name="Path 675" d="M913.72,256.25a28.47,28.47,0,0,1-14.21,5.85,32.331,32.331,0,0,0-13.05,3.9c-4.73,2.65-10,6.5-11.6,11.19-3.22,9.2-23.46,24.38-32.66,21.16l3.22,27.6s26.22-1.38,30.82-11.5l-7.82,98.43h6.9s3.68-26.68,6.44-32.2,8.28-35.88,8.74-43.24,7.36-49.68,13.34-57L913.72,259Z" transform="translate(5456.997 -1019.13)" opacity="0.1"/>
    <path id="Path_676" data-name="Path 676" d="M913.72,255.33a28.47,28.47,0,0,1-14.21,5.85,32.329,32.329,0,0,0-13.06,3.88c-4.73,2.65-10,6.5-11.6,11.19-3.22,9.2-23.46,24.38-32.66,21.16l3.22,27.6s26.22-1.38,30.82-11.5L868.42,412h6.9s3.68-26.68,6.44-32.2,8.28-35.88,8.74-43.24,7.36-49.68,13.34-57l9.89-21.39Z" transform="translate(5456.997 -1019.13)" fill="#fd6f8d"/>
    <path id="Path_677" data-name="Path 677" d="M937.18,237.62c-.6-4.36.6-7.08,1.15-12.19l-26.22,19.78s.63,2.67,1.11,6.58a25,25,0,0,0,4,.32C926.32,252.11,932.87,245,937.18,237.62Z" transform="translate(5456.997 -1019.13)" opacity="0.1"/>
    <circle id="Ellipse_51" data-name="Ellipse 51" cx="24.84" cy="24.84" r="24.84" transform="translate(6349.327 -818.07)" fill="#fec3be"/>
    <path id="Path_678" data-name="Path 678" d="M890.06,201.55a31.439,31.439,0,0,1,2-12.29,3.07,3.07,0,0,0,.52,4,19.68,19.68,0,0,1,6.24-11.06c-1.77.29-2.68,2.48-2.24,4.22a9.6,9.6,0,0,0,3.07,4.32c-.15-2.63,1.59-5.09,3.79-6.53a22.741,22.741,0,0,1,7.4-2.68,4.29,4.29,0,0,0-2.84,4.4,1.23,1.23,0,0,0,.37.85,1.41,1.41,0,0,0,.84.22,64.377,64.377,0,0,0,7.77-.17,81.482,81.482,0,0,1,9.57-.51c10,.42,20.05,7.25,22.29,17a39.085,39.085,0,0,1,.73,7.18l.49,12.31a45,45,0,0,1-.44,10.76,22.8,22.8,0,0,1-11.71,15.48c-3.61-5.23-3.93-11.95-5.18-18.18a9.2,9.2,0,0,0-1.56-4,3.51,3.51,0,0,0-3.85-1.3c-1.35.54-1.93,2.6-.81,3.52-1,1.18-2.87.3-4-.75a21.48,21.48,0,0,1-6.23-11.13c-.45-2.14-.9-4.78-3-5.51a5.58,5.58,0,0,0-2.22-.15c-4.38.3-11.23,2.11-15.47.72C891.7,211,890.06,205.24,890.06,201.55Z" transform="translate(5456.997 -1019.13)" opacity="0.1"/>
    <path id="Path_679" data-name="Path 679" d="M890.52,201.09a31.439,31.439,0,0,1,2-12.29,3.07,3.07,0,0,0,.52,4,19.681,19.681,0,0,1,6.24-11.06c-1.77.29-2.68,2.48-2.24,4.22a9.6,9.6,0,0,0,3.07,4.32c-.15-2.63,1.59-5.09,3.79-6.53a22.741,22.741,0,0,1,7.4-2.68,4.29,4.29,0,0,0-2.84,4.4,1.23,1.23,0,0,0,.37.85,1.41,1.41,0,0,0,.84.22,64.384,64.384,0,0,0,7.77-.17,81.491,81.491,0,0,1,9.57-.51c10,.42,20.05,7.25,22.29,17a39.085,39.085,0,0,1,.73,7.18l.49,12.31a45,45,0,0,1-.44,10.76,22.8,22.8,0,0,1-11.71,15.48c-3.61-5.23-3.93-11.95-5.18-18.18a9.2,9.2,0,0,0-1.56-4,3.51,3.51,0,0,0-3.85-1.3c-1.35.54-1.93,2.6-.81,3.52-1,1.18-2.87.3-4-.75a21.48,21.48,0,0,1-6.23-11.13c-.45-2.14-.9-4.78-3-5.51a5.58,5.58,0,0,0-2.22-.15c-4.38.3-11.23,2.11-15.47.72C892.16,210.53,890.52,204.78,890.52,201.09Z" transform="translate(5456.997 -1019.13)" fill="#784f69"/>
    <path id="Path_680" data-name="Path 680" d="M841,297.42s-3.68,17,3.22,27.6l3.91-.32-2.13-27Z" transform="translate(5456.997 -1019.13)" opacity="0.1"/>
    <path id="Path_681" data-name="Path 681" d="M842,297.42s-3.68,17,3.22,27.6l3.91-.32-2.13-27Z" transform="translate(5456.997 -1019.13)" fill="#fd6f8d"/>
    <path id="Path_682" data-name="Path 682" d="M940.86,251l29.67,25.53s17.48,17.94,10.12,46.92c0,0-3.22,42.32-6.9,44.16,0,0-12.88,25.76-13.8,50.14,0,0-17.25-34.73-25.07-13.57s-26,24.15-26,24.15L919,303.17S944.54,258.78,940.86,251Z" transform="translate(5456.997 -1019.13)" opacity="0.1"/>
    <path id="Path_683" data-name="Path 683" d="M941.78,251l29.67,25.53s17.48,17.94,10.12,46.92c0,0-3.22,42.32-6.9,44.16,0,0-12.88,25.76-13.8,50.14,0,0-18.17-36.57-26-15.41s-25.07,26-25.07,26l10.12-125.11S945.46,258.78,941.78,251Z" transform="translate(5456.997 -1019.13)" fill="#fd6f8d"/>
    <path id="Path_684" data-name="Path 684" d="M955.35,358.83s7.36-5.06,19.32,8.74l-29.44,53.36L935.34,406S956.27,364.81,955.35,358.83Z" transform="translate(5456.997 -1019.13)" fill="#fec3be"/>
    <path id="Path_685" data-name="Path 685" d="M948.22,361.82s16.28,18.28,22.63,15.35l5.88-13.69L954.66,354Z" transform="translate(5456.997 -1019.13)" opacity="0.1"/>
    <path id="Path_686" data-name="Path 686" d="M948.22,360.9s16.28,18.28,22.63,15.35l5.88-13.69-22.07-9.48Z" transform="translate(5456.997 -1019.13)" fill="#fd6f8d"/>
    <path id="Path_687" data-name="Path 687" d="M936.34,402.51s7.75,15.88,11.88,16.8l-6,6.9-8.74-16.56Z" transform="translate(5456.997 -1019.13)" opacity="0.1"/>
    <path id="Path_688" data-name="Path 688" d="M935.88,403s7.75,15.88,11.88,16.8l-6,6.9L933,410.11Z" transform="translate(5456.997 -1019.13)" fill="#4d4981"/>
    <path id="Path_689" data-name="Path 689" d="M950.52,304.78s.92,33.12-2.76,45.54" transform="translate(5456.997 -1019.13)" opacity="0.1"/>
    <path id="Path_690" data-name="Path 690" d="M876,311.22s5.52-1.84,5.52-6.44" transform="translate(5456.997 -1019.13)" opacity="0.1"/>
    <path id="Path_691" data-name="Path 691" d="M205.69,316.76s-26.22,54.24-9,118.43,11.75,141-5.42,160" transform="translate(5456.997 -1019.13)" fill="none" stroke="#535461" stroke-miterlimit="10" stroke-width="2"/>
    <circle id="Ellipse_52" data-name="Ellipse 52" cx="7.23" cy="7.23" r="7.23" transform="translate(5655.457 -709.59)" fill="#6c63ff"/>
    <path id="Path_692" data-name="Path 692" d="M194.79,351.65s27.18,4.9,34.41-5" transform="translate(5456.997 -1019.13)" fill="none" stroke="#535461" stroke-miterlimit="10" stroke-width="2"/>
    <path id="Path_693" data-name="Path 693" d="M192.21,367.4s-16.35-18.09-15.45-28.94" transform="translate(5456.997 -1019.13)" fill="none" stroke="#535461" stroke-miterlimit="10" stroke-width="2"/>
    <path id="Path_694" data-name="Path 694" d="M190.82,400.54s14.87,3.92,28.44-25" transform="translate(5456.997 -1019.13)" fill="none" stroke="#535461" stroke-miterlimit="10" stroke-width="2"/>
    <path id="Path_695" data-name="Path 695" d="M194.79,424.64s-37-23.81-32.49-39.17" transform="translate(5456.997 -1019.13)" fill="none" stroke="#535461" stroke-miterlimit="10" stroke-width="2"/>
    <path id="Path_696" data-name="Path 696" d="M200.57,451.89s25.92-23,23.21-45.63" transform="translate(5456.997 -1019.13)" fill="none" stroke="#535461" stroke-miterlimit="10" stroke-width="2"/>
    <path id="Path_697" data-name="Path 697" d="M203.39,467.91s-33-9.22-32-23.68" transform="translate(5456.997 -1019.13)" fill="none" stroke="#535461" stroke-miterlimit="10" stroke-width="2"/>
    <path id="Path_698" data-name="Path 698" d="M205.69,487s20.79-19.26,23.5-31" transform="translate(5456.997 -1019.13)" fill="none" stroke="#535461" stroke-miterlimit="10" stroke-width="2"/>
    <path id="Path_699" data-name="Path 699" d="M207.14,519.75s-21.33-24.9-22.24-37.55" transform="translate(5456.997 -1019.13)" fill="none" stroke="#535461" stroke-miterlimit="10" stroke-width="2"/>
    <path id="Path_700" data-name="Path 700" d="M207.14,540.36s23.87-26.52,25.67-39.17" transform="translate(5456.997 -1019.13)" fill="none" stroke="#535461" stroke-miterlimit="10" stroke-width="2"/>
    <circle id="Ellipse_53" data-name="Ellipse 53" cx="7.23" cy="7.23" r="7.23" transform="translate(5626.526 -686.09)" fill="#6c63ff"/>
    <circle id="Ellipse_54" data-name="Ellipse 54" cx="7.23" cy="7.23" r="7.23" transform="translate(5618.396 -582.13)" fill="#6c63ff"/>
    <circle id="Ellipse_55" data-name="Ellipse 55" cx="7.23" cy="7.23" r="7.23" transform="translate(5612.066 -640.89)" fill="#6c63ff"/>
    <circle id="Ellipse_56" data-name="Ellipse 56" cx="7.23" cy="7.23" r="7.23" transform="translate(5678.967 -679.76)" fill="#6c63ff"/>
    <circle id="Ellipse_57" data-name="Ellipse 57" cx="7.23" cy="7.23" r="7.23" transform="translate(5678.967 -568.57)" fill="#6c63ff"/>
    <circle id="Ellipse_58" data-name="Ellipse 58" cx="7.23" cy="7.23" r="7.23" transform="translate(5667.217 -650.83)" fill="#6c63ff"/>
    <circle id="Ellipse_59" data-name="Ellipse 59" cx="7.23" cy="7.23" r="7.23" transform="translate(5681.677 -520.65)" fill="#6c63ff"/>
    <circle id="Ellipse_60" data-name="Ellipse 60" cx="7.23" cy="7.23" r="7.23" transform="translate(5632.856 -539.64)" fill="#6c63ff"/>
    <circle id="Ellipse_61" data-name="Ellipse 61" cx="7.23" cy="7.23" r="7.23" transform="translate(5674.447 -620.1)" fill="#6c63ff"/>
  </g>
</svg>
